<svg xmlns="http://www.w3.org/2000/svg" viewBox="0 0 512 512" role="img" aria-labelledby="title desc">
  <title id="title">tend icon</title>
  <desc id="desc">A terminal window with three status panes for blocked, working, and idle agents.</desc>
  <defs>
    <linearGradient id="window" x1="96" y1="72" x2="416" y2="440" gradientUnits="userSpaceOnUse">
      <stop offset="0" stop-color="#172033"/>
      <stop offset="1" stop-color="#0B1020"/>
    </linearGradient>
    <filter id="shadow" x="56" y="48" width="400" height="424" color-interpolation-filters="sRGB" filterUnits="userSpaceOnUse">
      <feDropShadow dx="0" dy="16" stdDeviation="18" flood-color="#020617" flood-opacity="0.24"/>
    </filter>
  </defs>
  <rect width="512" height="512" rx="112" fill="#F8FAFC"/>
  <g filter="url(#shadow)">
    <rect x="88" y="72" width="336" height="368" rx="44" fill="url(#window)"/>
    <path d="M88 134h336" fill="none" stroke="#263249" stroke-width="16"/>
    <circle cx="132" cy="104" r="10" fill="#EF4444"/>
    <circle cx="166" cy="104" r="10" fill="#F59E0B"/>
    <circle cx="200" cy="104" r="10" fill="#22C55E"/>
    <rect x="126" y="172" width="260" height="56" rx="18" fill="#111827"/>
    <rect x="126" y="252" width="260" height="56" rx="18" fill="#111827"/>
    <rect x="126" y="332" width="260" height="56" rx="18" fill="#111827"/>
    <circle cx="164" cy="200" r="16" fill="#EF4444"/>
    <g fill="#F59E0B">
      <circle cx="156" cy="270" r="5"/>
      <circle cx="172" cy="270" r="5"/>
      <circle cx="172" cy="282" r="5"/>
      <circle cx="156" cy="294" r="5"/>
      <circle cx="172" cy="294" r="5"/>
    </g>
    <circle cx="164" cy="360" r="14" fill="none" stroke="#22C55E" stroke-width="8"/>
    <path d="M204 200h116M204 280h148M204 360h92" fill="none" stroke="#CBD5E1" stroke-linecap="round" stroke-width="14"/>
  </g>
</svg>
